# AST/ASF file generated using VICON BodyLanguage
# -----------------------------------------------
:version 1.10
:name VICON
:units
  mass 1.0
  length 0.45
  angle deg
:documentation
   .ast/.asf automatically generated from VICON data using
   VICON BodyBuilder and BodyLanguage model FoxedUp or BRILLIANT.MOD
:root
   order TX TY TZ RX RY RZ
   axis XYZ
   position 0 0 0  
   orientation 0 0 0 
:bonedata
  begin
     id 1 
     name lhipjoint
     direction 0.57768 -0.667037 0.470475 
     length 2.36008 
     axis 0 0 0  XYZ
  end
  begin
     id 2 
     name lfemur
     direction 0.34202 -0.939693 0  
     length 6.97235  
     axis 0 0 20  XYZ
    dof rx ry rz
    limits (-160.0 20.0)
           (-70.0 70.0)
           (-60.0 70.0)
  end
  begin
     id 3 
     name ltibia
     direction 0.34202 -0.939693 0   
     length 6.93428   
     axis 0 0 20   XYZ
    dof rx
    limits (-10.0 170.0)
  end
  begin
     id 4 
     name lfoot
     direction 0.133018 -0.365463 0.921272   
     length 2.18603   
     axis -90 7.62852e-016 20   XYZ
    dof rx rz
    limits (-45.0 90.0)
           (-70.0 20.0)
  end
  begin
     id 5 
     name ltoes
     direction 1.53519e-011 -4.22055e-011 1   
     length 1.07924   
     axis -90 7.62852e-016 20   XYZ
    dof rx
    limits (-90.0 20.0)
  end
  begin
     id 6 
     name rhipjoint
     direction -0.577712 -0.667019 0.470462   
     length 2.36015  
     axis 0 0 0  XYZ 
  end
  begin
     id 7 
     name rfemur
     direction -0.34202 -0.939693 0   
     length 6.71195   
     axis 0 0 -20   XYZ
    dof rx ry rz
    limits (-160.0 20.0)
           (-70.0 70.0)
           (-70.0 60.0)
  end
  begin
     id 8 
     name rtibia
     direction -0.34202 -0.939693 0   
     length 7.04592   
     axis 0 0 -20   XYZ
    dof rx
    limits (-10.0 170.0)
 end
 begin
     id 9 
     name rfoot
     direction -0.113796 -0.312651 0.943027   
     length 2.03846  
     axis -90 -7.62852e-016 -20   XYZ
    dof rx rz
    limits (-45.0 90.0)
           (-20.0 70.0)
  end
  begin
     id 10 
     name rtoes
     direction -1.53586e-011 -4.218e-011 1   
     length 1.01562   
     axis -90 -7.62852e-016 -20   XYZ
    dof rx
    limits (-90.0 20.0)
  end
  begin
     id 11 
     name lowerback
     direction -0.0417299 0.991937 -0.119667   
     length 2.05257   
     axis 0 0 0   XYZ
    dof rx ry rz
    limits (-20.0 45.0)
           (-30.0 30.0)
           (-30.0 30.0)
  end
  begin
     id 12 
     name upperback
     direction -0.00017666 0.999999 0.00105178   
     length 2.05693   
     axis 0 0 0   XYZ
    dof rx ry rz
    limits (-20.0 45.0)
           (-30.0 30.0)
           (-30.0 30.0)
  end
  begin
     id 13 
     name thorax
     direction 0.0185169 0.998203 0.0569866   
     length 2.0932   
     axis 0 0 0   XYZ
    dof rx ry rz
    limits (-20.0 45.0)
           (-30.0 30.0)
           (-30.0 30.0)
  end
  begin
     id 14 
     name lowerneck
     direction -0.0212406 0.982645 0.184277   
     length 1.72509   
     axis 0 0 0   XYZ
    dof rx ry rz
    limits (-20.0 45.0)
           (-30.0 30.0)
           (-30.0 30.0)
  end
  begin
     id 15 
     name upperneck
     direction 0.00528579 0.965323 -0.261004   
     length 1.76294   
     axis 0 0 0   XYZ
    dof rx ry rz
    limits (-20.0 45.0)
           (-30.0 30.0)
           (-30.0 30.0)
  end
  begin
     id 16
     name head
     direction 0.00695421 0.994078 -0.108445  
     length 1.78678  
     axis 0 0 0   XYZ
    dof rx ry rz
    limits (-20.0 45.0)
           (-30.0 30.0)
           (-30.0 30.0)
  end
  begin
     id 17 
     name lclavicle
     direction 0.97277 0.211305 -0.095232  
     length 3.84823  
     axis 0 0 0   XYZ
    dof ry rz
    limits (-20.0 10.0)
           (0.0 20.0)
  end
  begin
     id 18 
     name lhumerus
     direction 1 -4.48957e-011 -1.98313e-027   
     length 4.97185   
     axis 180 -30 -90   XYZ
    dof rx ry rz
    limits (-60.0 90.0)
           (-90.0 90.0)
           (-90.0 90.0)
  end
  begin
     id 19
     name lradius
     direction 1 -4.4898e-011 7.31063e-027   
     length 3.35811   
     axis 180 -30 -90   XYZ
    dof rx
    limits (-10.0 170.0)
  end
  begin
     id 20
     name lwrist
     direction 1 -4.48938e-011 9.95048e-027   
     length 1.67905   
     axis -8.75986e-015 90 90   XYZ
    dof ry
    limits (-180.0 0.0)
 end
  begin
     id 21 
     name lhand
     direction 1 -4.4901e-011 1.9901e-026   
     length 0.622776   
     axis -1.26985e-014 90 90   XYZ
    dof rx rz
    limits (-90.0 90.0)
           (-45.0 45.0)
  end
  begin
     id 22 
     name lfingers
     direction 1 -4.48961e-011 3.98019e-026   
     length 0.502098   
     axis -2.5397e-014 90 90   XYZ
    dof rx
    limits (0.0 90.0)
  end
  begin
     id 23
     name lthumb
     direction 0.707107 -6.34933e-011 0.707107   
     length 0.720915   
     axis -90 45 2.85299e-015   XYZ
    dof rx rz
    limits (-45.0 45.0)
           (-45.0 45.0)
  end
  begin
     id 24 
     name rclavicle
     direction -0.990867 0.133739 -0.0172226   
     length 3.78845  
     axis 0 0 0   XYZ 
    dof ry rz
    limits (-10.0 20.0)
           (-20.0 0.0)
  end
  begin
     id 25 
     name rhumerus
     direction -1 -4.48972e-011 -1.99267e-027  
     length 4.96493   
     axis 180 30 90   XYZ
    dof rx ry rz
    limits (-90.0 60.0)
           (-90.0 90.0)
           (-90.0 90.0)
  end
  begin
     id 26 
     name rradius
     direction -1 -4.48969e-011 8.96093e-027   
     length 3.34929   
     axis 180 30 90   XYZ
    dof rx
    limits (-10.0 170.0)
  end
  begin
     id 27 
     name rwrist
     direction -1 -4.48953e-011 9.95048e-027   
     length 1.67464   
     axis -8.75986e-015 -90 -90   XYZ
    dof ry
    limits (-180.0 0.0)
  end
  begin
     id 28
     name rhand
     direction -1 -4.49001e-011 1.9901e-026   
     length 0.638041   
     axis -1.26985e-014 -90 -90   XYZ
    dof rx rz
    limits (-90.0 90.0)
           (-45.0 45.0)
  end
  begin
     id 29
     name rfingers
     direction -1 -4.48967e-011 3.98019e-026   
     length 0.514405   
     axis -2.5397e-014 -90 -90   XYZ
    dof rx
    limits (0.0 90.0)
  end
  begin
     id 30
     name rthumb
     direction -0.707107 -6.34904e-011 0.707107   
     length 0.738586   
     axis -90 -45 -2.85299e-015   XYZ
    dof rx rz
    limits (-45.0 45.0)
           (-45.0 45.0)
  end
:hierarchy
  begin
    root lhipjoint rhipjoint lowerback
    lhipjoint lfemur
    lfemur ltibia
    ltibia lfoot
    lfoot ltoes
    rhipjoint rfemur
    rfemur rtibia
    rtibia rfoot
    rfoot rtoes
    lowerback upperback
    upperback thorax
    thorax lowerneck lclavicle rclavicle
    lowerneck upperneck
    upperneck head
    lclavicle lhumerus
    lhumerus lradius
    lradius lwrist
    lwrist lhand lthumb
    lhand lfingers
    rclavicle rhumerus
    rhumerus rradius
    rradius rwrist
    rwrist rhand rthumb
    rhand rfingers
  end

#!OML:ASF E:\Mandelcareful walks\Project 1\Capture day 1\Session 1\Subject1.ASF
:FULLY-SPECIFIED
:DEGREES
465
root -12.5898 16.7346 -15.3474 11.8398 83.3782 6.43561
lowerback -6.89751 1.67688 -3.00131
upperback 2.09433 2.58654 -1.02656
thorax 5.97265 1.18795 0.921335
lowerneck -18.432 1.46759 0.529662
upperneck 44.415 5.05427 -0.571668
head 20.9131 2.6288 1.00571
rclavicle 5.46658e-016 -2.78299e-015
rhumerus -27.4769 -3.73094 -86.4134
rradius 29.7824
rwrist -12.2147
rhand -9.34522 -33.361
rfingers 7.12502
rthumb 16.6141 -62.6699
lclavicle 5.46658e-016 -2.78299e-015
lhumerus -31.3448 6.45001 86.0338
lradius 22.0057
lwrist 0.640178
lhand -18.7237 -12.0429
lfingers 7.12502
lthumb 7.57181 17.8016
rfemur 10.6633 -2.02345 14.1719
rtibia 18.1022
rfoot -3.92021 0.686291
rtoes 10.7663
lfemur -22.7316 -0.788857 -20.017
ltibia 28.9518
lfoot -14.6309 12.3895
ltoes 8.34094
466
root -12.5047 16.748 -15.3885 9.65902 83.2842 4.22069
lowerback -6.78637 1.7266 -2.83063
upperback 2.04968 2.62572 -0.947707
thorax 5.86399 1.21374 0.907637
lowerneck -18.4739 1.49072 0.541041
upperneck 44.3831 5.07702 -0.572485
head 20.9036 2.6371 1.00787
rclavicle -2.127e-014 6.75868e-015
rhumerus -27.828 -3.96938 -86.1409
rradius 29.5413
rwrist -11.9446
rhand -9.18578 -33.0472
rfingers 7.12502
rthumb 16.7676 -62.3432
lclavicle -2.127e-014 6.75868e-015
lhumerus -30.8374 6.41026 86.1802
lradius 21.7216
lwrist 0.590057
lhand -18.7907 -13.5407
lfingers 7.12502
lthumb 7.50722 16.3061
rfemur 9.77726 -2.16878 14.2211
rtibia 20.0139
rfoot -3.56681 0.614136
rtoes 9.61969
lfemur -22.4325 -0.764894 -19.9482
ltibia 28.941
lfoot -14.7084 12.4217
ltoes 9.28115
467
root -12.4005 16.7488 -15.4203 11.2289 83.4137 6.06197
lowerback -6.68765 1.67685 -3.18518
upperback 2.12707 2.59198 -0.965399
thorax 5.87657 1.18425 1.08142
lowerneck -18.5005 1.48313 0.506639
upperneck 44.3884 5.05617 -0.523606
head 20.9111 2.62979 1.03548
rclavicle 2.26118e-014 -6.36111e-015
rhumerus -28.3093 -4.29754 -85.86
rradius 29.3836
rwrist -11.861
rhand -9.4446 -32.8966
rfingers 7.12502
rthumb 16.5184 -62.2134
lclavicle 2.26118e-014 -6.36111e-015
lhumerus -30.6338 5.5866 86.5697
lradius 21.9926
lwrist 1.08666
lhand -18.6361 -12.3296
lfingers 7.12502
lthumb 7.65637 17.5118
rfemur 9.18095 -2.65053 13.7659
rtibia 22.2507
rfoot -3.44227 0.567819
rtoes 8.91856
lfemur -21.7031 -0.570186 -20.3962
ltibia 28.7577
lfoot -14.7655 11.9956
ltoes 9.86332
468
root -12.2992 16.7437 -15.4577 15.6229 83.6251 10.7059
lowerback -6.56991 1.54626 -3.79117
upperback 2.14907 2.47459 -1.05273
thorax 5.81784 1.10793 1.31228
lowerneck -18.4391 1.51215 0.644205
upperneck 44.3864 5.13171 -0.692039
head 20.9073 2.66195 0.940337
rclavicle -2.6339e-014 7.55382e-015
rhumerus -28.7879 -4.37938 -85.619
rradius 29.1876
rwrist -11.8649
rhand -9.51498 -33.4901
rfingers 7.12502
rthumb 16.4507 -62.8126
lclavicle -2.6339e-014 7.55382e-015
lhumerus -30.4 5.31148 86.7662
lradius 21.9391
lwrist 1.14519
lhand -18.5586 -11.3391
lfingers 7.12502
lthumb 7.73124 18.4996
rfemur 8.64966 -3.4386 12.9298
rtibia 24.3468
rfoot -3.15898 0.544939
rtoes 9.38202
lfemur -21.03 -0.62657 -21.1568
ltibia 28.6236
lfoot -14.7921 11.653
ltoes 9.67679
469
root -12.2325 16.758 -15.4998 14.971 82.6895 9.86649
lowerback -6.38681 1.83063 -3.97978
upperback 1.94131 2.85578 -1.09581
thorax 5.46991 1.29997 1.40278
lowerneck -18.3601 1.56735 0.843244
upperneck 44.3401 5.21388 -0.863675
head 20.869 2.70585 0.831595
rclavicle -4.02539e-015 -5.56597e-015
rhumerus -29.1814 -4.43604 -85.4018
rradius 28.9608
rwrist -11.6096
rhand -9.19804 -33.6797
rfingers 7.12502
rthumb 16.7558 -62.9766
lclavicle -4.02539e-015 -5.56597e-015
lhumerus -30.123 5.06019 86.9355
lradius 21.9088
lwrist 1.28443
lhand -18.6287 -11.2448
lfingers 7.12502
lthumb 7.66349 18.5963
rfemur 7.10258 -3.16756 12.4944
rtibia 26.5214
rfoot -2.4514 0.560545
rtoes 9.97637
lfemur -20.7981 -0.402533 -21.4131
ltibia 28.4032
lfoot -14.9436 12.1962
ltoes 9.78687
470
root -12.124 16.7605 -15.5327 13.4391 83.0427 8.48597
lowerback -6.49852 1.70452 -3.84368
upperback 2.03314 2.67961 -1.01454
thorax 5.64088 1.21106 1.39884
lowerneck -18.3738 1.5946 0.909724
upperneck 44.3116 5.23404 -0.894043
head 20.8575 2.71884 0.807484
rclavicle 6.36111e-015 1.35174e-014
rhumerus -29.5433 -4.58796 -85.2116
rradius 28.7782
rwrist -11.1716
rhand -9.06852 -32.8816
rfingers 7.12502
rthumb 16.8805 -62.168
lclavicle 6.36111e-015 1.35174e-014
lhumerus -29.8883 4.32941 87.2373
lradius 22.1804
lwrist 1.89903
lhand -18.8651 -10.6981
lfingers 7.12502
lthumb 7.43532 19.1513
rfemur 6.52144 -3.80671 12.5161
rtibia 28.5934
rfoot -2.22218 0.404966
rtoes 9.37841
lfemur -20.1213 -0.316001 -21.3862
ltibia 28.1671
lfoot -14.8952 11.7624
ltoes 9.80238
